<mxfile host="Electron" agent="Mozilla/5.0 (X11; Linux x86_64) AppleWebKit/537.36 (KHTML, like Gecko) draw.io/27.0.9 Chrome/134.0.6998.205 Electron/35.6.0 Safari/537.36" version="27.0.9">
  <diagram name="Page-1" id="oMHGKtjGc_Rwl72CopP7">
    <mxGraphModel dx="1578" dy="719" grid="1" gridSize="10" guides="1" tooltips="1" connect="1" arrows="0" fold="1" page="0" pageScale="1" pageWidth="850" pageHeight="1100" math="0" shadow="0" adaptiveColors="simple">
      <root>
        <mxCell id="0" />
        <mxCell id="1" parent="0" />
        <mxCell id="u1WKg1l0E3gmMKmdUdX--4" style="edgeStyle=orthogonalEdgeStyle;rounded=0;hachureGap=4;orthogonalLoop=1;jettySize=auto;html=1;exitX=0.5;exitY=0.5;exitDx=0;exitDy=0;exitPerimeter=0;fontFamily=SF Mono;sketch=1;curveFitting=1;jiggle=2;" edge="1" parent="1" source="u1WKg1l0E3gmMKmdUdX--2" target="u1WKg1l0E3gmMKmdUdX--5">
          <mxGeometry relative="1" as="geometry">
            <mxPoint x="170" y="320" as="targetPoint" />
          </mxGeometry>
        </mxCell>
        <mxCell id="u1WKg1l0E3gmMKmdUdX--6" value="writes" style="edgeLabel;html=1;align=center;verticalAlign=middle;resizable=0;points=[];hachureGap=4;fontFamily=SF Mono;sketch=1;curveFitting=1;jiggle=2;" vertex="1" connectable="0" parent="u1WKg1l0E3gmMKmdUdX--4">
          <mxGeometry x="-0.0415" y="2" relative="1" as="geometry">
            <mxPoint as="offset" />
          </mxGeometry>
        </mxCell>
        <mxCell id="u1WKg1l0E3gmMKmdUdX--2" value="Admin" style="shape=umlActor;verticalLabelPosition=bottom;verticalAlign=top;html=1;outlineConnect=0;hachureGap=4;fontFamily=SF Mono;sketch=1;curveFitting=1;jiggle=2;" vertex="1" parent="1">
          <mxGeometry x="-40" y="290" width="30" height="60" as="geometry" />
        </mxCell>
        <mxCell id="u1WKg1l0E3gmMKmdUdX--12" style="edgeStyle=orthogonalEdgeStyle;rounded=0;hachureGap=4;orthogonalLoop=1;jettySize=auto;html=1;exitX=0.5;exitY=1;exitDx=0;exitDy=0;fontFamily=SF Mono;sketch=1;curveFitting=1;jiggle=2;" edge="1" parent="1" source="u1WKg1l0E3gmMKmdUdX--5" target="u1WKg1l0E3gmMKmdUdX--13">
          <mxGeometry relative="1" as="geometry">
            <mxPoint x="290" y="440" as="targetPoint" />
          </mxGeometry>
        </mxCell>
        <mxCell id="u1WKg1l0E3gmMKmdUdX--40" value="Result" style="edgeLabel;html=1;align=center;verticalAlign=middle;resizable=0;points=[];hachureGap=4;fontFamily=SF Mono;sketch=1;curveFitting=1;jiggle=2;" vertex="1" connectable="0" parent="u1WKg1l0E3gmMKmdUdX--12">
          <mxGeometry x="0.0708" y="-2" relative="1" as="geometry">
            <mxPoint as="offset" />
          </mxGeometry>
        </mxCell>
        <mxCell id="u1WKg1l0E3gmMKmdUdX--5" value="workflow.yml" style="rounded=0;whiteSpace=wrap;html=1;hachureGap=4;fontFamily=SF Mono;sketch=1;curveFitting=1;jiggle=2;" vertex="1" parent="1">
          <mxGeometry x="230" y="290" width="120" height="60" as="geometry" />
        </mxCell>
        <mxCell id="u1WKg1l0E3gmMKmdUdX--8" style="edgeStyle=orthogonalEdgeStyle;rounded=0;hachureGap=4;orthogonalLoop=1;jettySize=auto;html=1;exitX=0;exitY=0.5;exitDx=0;exitDy=0;entryX=0.5;entryY=0;entryDx=0;entryDy=0;fontFamily=SF Mono;sketch=1;curveFitting=1;jiggle=2;" edge="1" parent="1" source="u1WKg1l0E3gmMKmdUdX--7" target="u1WKg1l0E3gmMKmdUdX--5">
          <mxGeometry relative="1" as="geometry" />
        </mxCell>
        <mxCell id="u1WKg1l0E3gmMKmdUdX--9" value="reads" style="edgeLabel;html=1;align=center;verticalAlign=middle;resizable=0;points=[];hachureGap=4;fontFamily=SF Mono;sketch=1;curveFitting=1;jiggle=2;" vertex="1" connectable="0" parent="u1WKg1l0E3gmMKmdUdX--8">
          <mxGeometry x="-0.1538" y="-3" relative="1" as="geometry">
            <mxPoint as="offset" />
          </mxGeometry>
        </mxCell>
        <mxCell id="u1WKg1l0E3gmMKmdUdX--7" value="Workflow Parser:&lt;div&gt;Responsible for reading workflow details, and creating Workflow Objects&lt;/div&gt;&lt;div&gt;Responsible for creatring the topics in the workflow if they don&#39;t exist&lt;/div&gt;" style="rounded=0;whiteSpace=wrap;html=1;hachureGap=4;fontFamily=SF Mono;sketch=1;curveFitting=1;jiggle=2;" vertex="1" parent="1">
          <mxGeometry x="500" y="110" width="330" height="160" as="geometry" />
        </mxCell>
        <mxCell id="u1WKg1l0E3gmMKmdUdX--13" value="Workflow&lt;div&gt;&lt;div&gt;A workflow is defined as a set of steps, one event after another, with the first one being called the initiating event&lt;/div&gt;&lt;/div&gt;" style="rounded=1;whiteSpace=wrap;html=1;hachureGap=4;fontFamily=SF Mono;sketch=1;curveFitting=1;jiggle=2;" vertex="1" parent="1">
          <mxGeometry x="140" y="410" width="340" height="140" as="geometry" />
        </mxCell>
        <mxCell id="u1WKg1l0E3gmMKmdUdX--25" style="edgeStyle=orthogonalEdgeStyle;rounded=0;hachureGap=4;orthogonalLoop=1;jettySize=auto;html=1;exitX=0.5;exitY=0.5;exitDx=0;exitDy=0;exitPerimeter=0;fontFamily=SF Mono;sketch=1;curveFitting=1;jiggle=2;" edge="1" parent="1" source="u1WKg1l0E3gmMKmdUdX--23" target="u1WKg1l0E3gmMKmdUdX--24">
          <mxGeometry relative="1" as="geometry" />
        </mxCell>
        <mxCell id="u1WKg1l0E3gmMKmdUdX--26" value="WebSocket Request" style="edgeLabel;html=1;align=center;verticalAlign=middle;resizable=0;points=[];hachureGap=4;fontFamily=SF Mono;sketch=1;curveFitting=1;jiggle=2;" vertex="1" connectable="0" parent="u1WKg1l0E3gmMKmdUdX--25">
          <mxGeometry x="0.1407" y="1" relative="1" as="geometry">
            <mxPoint as="offset" />
          </mxGeometry>
        </mxCell>
        <mxCell id="u1WKg1l0E3gmMKmdUdX--23" value="user" style="shape=umlActor;verticalLabelPosition=bottom;verticalAlign=top;html=1;outlineConnect=0;hachureGap=4;fontFamily=SF Mono;sketch=1;curveFitting=1;jiggle=2;" vertex="1" parent="1">
          <mxGeometry x="-30" y="620" width="30" height="60" as="geometry" />
        </mxCell>
        <mxCell id="u1WKg1l0E3gmMKmdUdX--27" style="edgeStyle=orthogonalEdgeStyle;rounded=0;hachureGap=4;orthogonalLoop=1;jettySize=auto;html=1;exitX=1;exitY=0.5;exitDx=0;exitDy=0;fontFamily=SF Mono;sketch=1;curveFitting=1;jiggle=2;" edge="1" parent="1" source="u1WKg1l0E3gmMKmdUdX--24" target="u1WKg1l0E3gmMKmdUdX--32">
          <mxGeometry relative="1" as="geometry">
            <mxPoint x="660" y="650" as="targetPoint" />
          </mxGeometry>
        </mxCell>
        <mxCell id="u1WKg1l0E3gmMKmdUdX--31" value="If authenticated, send the websocket request to" style="edgeLabel;html=1;align=center;verticalAlign=middle;resizable=0;points=[];hachureGap=4;fontFamily=SF Mono;sketch=1;curveFitting=1;jiggle=2;" vertex="1" connectable="0" parent="u1WKg1l0E3gmMKmdUdX--27">
          <mxGeometry x="-0.1738" y="1" relative="1" as="geometry">
            <mxPoint as="offset" />
          </mxGeometry>
        </mxCell>
        <mxCell id="u1WKg1l0E3gmMKmdUdX--24" value="API Gateway:&lt;br&gt;Validate user authentication," style="rounded=0;whiteSpace=wrap;html=1;hachureGap=4;fontFamily=SF Mono;sketch=1;curveFitting=1;jiggle=2;" vertex="1" parent="1">
          <mxGeometry x="200" y="620" width="120" height="60" as="geometry" />
        </mxCell>
        <mxCell id="u1WKg1l0E3gmMKmdUdX--35" style="edgeStyle=orthogonalEdgeStyle;rounded=0;hachureGap=4;orthogonalLoop=1;jettySize=auto;html=1;exitX=0.5;exitY=0;exitDx=0;exitDy=0;entryX=0.5;entryY=0;entryDx=0;entryDy=0;fontFamily=SF Mono;sketch=1;curveFitting=1;jiggle=2;" edge="1" parent="1" source="u1WKg1l0E3gmMKmdUdX--32" target="u1WKg1l0E3gmMKmdUdX--33">
          <mxGeometry relative="1" as="geometry" />
        </mxCell>
        <mxCell id="u1WKg1l0E3gmMKmdUdX--32" value="Step Executor" style="rounded=0;whiteSpace=wrap;html=1;hachureGap=4;fontFamily=SF Mono;sketch=1;curveFitting=1;jiggle=2;" vertex="1" parent="1">
          <mxGeometry x="600" y="620" width="120" height="60" as="geometry" />
        </mxCell>
        <mxCell id="u1WKg1l0E3gmMKmdUdX--36" style="edgeStyle=orthogonalEdgeStyle;rounded=0;hachureGap=4;orthogonalLoop=1;jettySize=auto;html=1;exitX=0.5;exitY=1;exitDx=0;exitDy=0;entryX=0.5;entryY=1;entryDx=0;entryDy=0;fontFamily=SF Mono;sketch=1;curveFitting=1;jiggle=2;" edge="1" parent="1" source="u1WKg1l0E3gmMKmdUdX--33" target="u1WKg1l0E3gmMKmdUdX--32">
          <mxGeometry relative="1" as="geometry" />
        </mxCell>
        <mxCell id="u1WKg1l0E3gmMKmdUdX--33" value="Event Processor" style="rounded=0;whiteSpace=wrap;html=1;hachureGap=4;fontFamily=SF Mono;sketch=1;curveFitting=1;jiggle=2;" vertex="1" parent="1">
          <mxGeometry x="840" y="610" width="120" height="60" as="geometry" />
        </mxCell>
        <mxCell id="u1WKg1l0E3gmMKmdUdX--37" value="" style="image;aspect=fixed;html=1;points=[];align=center;fontSize=12;image=img/lib/mscae/Cache_Redis_Product.svg;hachureGap=4;fontFamily=SF Mono;sketch=1;curveFitting=1;jiggle=2;" vertex="1" parent="1">
          <mxGeometry x="670" y="450" width="50" height="42" as="geometry" />
        </mxCell>
        <mxCell id="u1WKg1l0E3gmMKmdUdX--38" style="edgeStyle=orthogonalEdgeStyle;rounded=0;hachureGap=4;orthogonalLoop=1;jettySize=auto;html=1;exitX=0.25;exitY=0;exitDx=0;exitDy=0;entryX=-0.043;entryY=0.46;entryDx=0;entryDy=0;entryPerimeter=0;fontFamily=SF Mono;sketch=1;curveFitting=1;jiggle=2;" edge="1" parent="1" target="u1WKg1l0E3gmMKmdUdX--37">
          <mxGeometry relative="1" as="geometry">
            <mxPoint x="600" y="610" as="sourcePoint" />
            <mxPoint x="637.8499999999999" y="457.85000000000014" as="targetPoint" />
            <Array as="points">
              <mxPoint x="600" y="611" />
              <mxPoint x="610" y="611" />
              <mxPoint x="610" y="469" />
            </Array>
          </mxGeometry>
        </mxCell>
        <mxCell id="u1WKg1l0E3gmMKmdUdX--39" value="workflow details in db" style="edgeLabel;html=1;align=center;verticalAlign=middle;resizable=0;points=[];hachureGap=4;fontFamily=SF Mono;sketch=1;curveFitting=1;jiggle=2;" vertex="1" connectable="0" parent="u1WKg1l0E3gmMKmdUdX--38">
          <mxGeometry x="0.0428" y="1" relative="1" as="geometry">
            <mxPoint as="offset" />
          </mxGeometry>
        </mxCell>
        <mxCell id="u1WKg1l0E3gmMKmdUdX--41" value="WorkflowParser" style="swimlane;fontStyle=1;align=center;verticalAlign=top;childLayout=stackLayout;horizontal=1;startSize=26;horizontalStack=0;resizeParent=1;resizeParentMax=0;resizeLast=0;collapsible=1;marginBottom=0;whiteSpace=wrap;html=1;hachureGap=4;fontFamily=SF Mono;sketch=1;curveFitting=1;jiggle=2;" vertex="1" parent="1">
          <mxGeometry x="60" y="790" width="200" height="110" as="geometry" />
        </mxCell>
        <mxCell id="u1WKg1l0E3gmMKmdUdX--42" value="- ..." style="text;strokeColor=none;fillColor=none;align=left;verticalAlign=top;spacingLeft=4;spacingRight=4;overflow=hidden;rotatable=0;points=[[0,0.5],[1,0.5]];portConstraint=eastwest;whiteSpace=wrap;html=1;fontFamily=SF Mono;sketch=1;curveFitting=1;jiggle=2;" vertex="1" parent="u1WKg1l0E3gmMKmdUdX--41">
          <mxGeometry y="26" width="200" height="26" as="geometry" />
        </mxCell>
        <mxCell id="u1WKg1l0E3gmMKmdUdX--43" value="" style="line;strokeWidth=1;fillColor=none;align=left;verticalAlign=middle;spacingTop=-1;spacingLeft=3;spacingRight=3;rotatable=0;labelPosition=right;points=[];portConstraint=eastwest;strokeColor=inherit;hachureGap=4;fontFamily=SF Mono;sketch=1;curveFitting=1;jiggle=2;" vertex="1" parent="u1WKg1l0E3gmMKmdUdX--41">
          <mxGeometry y="52" width="200" height="8" as="geometry" />
        </mxCell>
        <mxCell id="u1WKg1l0E3gmMKmdUdX--44" value="+ parse(file_name): workflow&amp;nbsp;" style="text;strokeColor=none;fillColor=none;align=left;verticalAlign=top;spacingLeft=4;spacingRight=4;overflow=hidden;rotatable=0;points=[[0,0.5],[1,0.5]];portConstraint=eastwest;whiteSpace=wrap;html=1;fontFamily=SF Mono;sketch=1;curveFitting=1;jiggle=2;" vertex="1" parent="u1WKg1l0E3gmMKmdUdX--41">
          <mxGeometry y="60" width="200" height="50" as="geometry" />
        </mxCell>
        <mxCell id="u1WKg1l0E3gmMKmdUdX--45" value="Workflow" style="swimlane;fontStyle=1;align=center;verticalAlign=top;childLayout=stackLayout;horizontal=1;startSize=26;horizontalStack=0;resizeParent=1;resizeParentMax=0;resizeLast=0;collapsible=1;marginBottom=0;whiteSpace=wrap;html=1;sketch=1;hachureGap=4;jiggle=2;curveFitting=1;fontFamily=Architects Daughter;fontSource=https%3A%2F%2Ffonts.googleapis.com%2Fcss%3Ffamily%3DArchitects%2BDaughter;" vertex="1" parent="1">
          <mxGeometry x="350" y="800" width="160" height="220" as="geometry" />
        </mxCell>
        <mxCell id="u1WKg1l0E3gmMKmdUdX--46" value="- steps: Step[]&lt;div&gt;- current_step: String&lt;/div&gt;&lt;div&gt;&lt;br&gt;&lt;/div&gt;" style="text;strokeColor=none;fillColor=none;align=left;verticalAlign=top;spacingLeft=4;spacingRight=4;overflow=hidden;rotatable=0;points=[[0,0.5],[1,0.5]];portConstraint=eastwest;whiteSpace=wrap;html=1;fontFamily=Architects Daughter;fontSource=https%3A%2F%2Ffonts.googleapis.com%2Fcss%3Ffamily%3DArchitects%2BDaughter;" vertex="1" parent="u1WKg1l0E3gmMKmdUdX--45">
          <mxGeometry y="26" width="160" height="84" as="geometry" />
        </mxCell>
        <mxCell id="u1WKg1l0E3gmMKmdUdX--47" value="" style="line;strokeWidth=1;fillColor=none;align=left;verticalAlign=middle;spacingTop=-1;spacingLeft=3;spacingRight=3;rotatable=0;labelPosition=right;points=[];portConstraint=eastwest;strokeColor=inherit;sketch=1;hachureGap=4;jiggle=2;curveFitting=1;fontFamily=Architects Daughter;fontSource=https%3A%2F%2Ffonts.googleapis.com%2Fcss%3Ffamily%3DArchitects%2BDaughter;" vertex="1" parent="u1WKg1l0E3gmMKmdUdX--45">
          <mxGeometry y="110" width="160" height="8" as="geometry" />
        </mxCell>
        <mxCell id="u1WKg1l0E3gmMKmdUdX--48" value="- get_root_step(): Step&lt;div&gt;- execute(): void&lt;/div&gt;&lt;div&gt;-&lt;/div&gt;" style="text;strokeColor=none;fillColor=none;align=left;verticalAlign=top;spacingLeft=4;spacingRight=4;overflow=hidden;rotatable=0;points=[[0,0.5],[1,0.5]];portConstraint=eastwest;whiteSpace=wrap;html=1;fontFamily=Architects Daughter;fontSource=https%3A%2F%2Ffonts.googleapis.com%2Fcss%3Ffamily%3DArchitects%2BDaughter;" vertex="1" parent="u1WKg1l0E3gmMKmdUdX--45">
          <mxGeometry y="118" width="160" height="102" as="geometry" />
        </mxCell>
        <mxCell id="u1WKg1l0E3gmMKmdUdX--49" value="Step" style="swimlane;fontStyle=1;align=center;verticalAlign=top;childLayout=stackLayout;horizontal=1;startSize=26;horizontalStack=0;resizeParent=1;resizeParentMax=0;resizeLast=0;collapsible=1;marginBottom=0;whiteSpace=wrap;html=1;sketch=1;hachureGap=4;jiggle=2;curveFitting=1;fontFamily=Architects Daughter;fontSource=https%3A%2F%2Ffonts.googleapis.com%2Fcss%3Ffamily%3DArchitects%2BDaughter;" vertex="1" parent="1">
          <mxGeometry x="580" y="800" width="240" height="198" as="geometry" />
        </mxCell>
        <mxCell id="u1WKg1l0E3gmMKmdUdX--50" value="- name: String&lt;div&gt;- topic: String&lt;/div&gt;&lt;div&gt;- expected_response_topic: String&lt;/div&gt;&lt;div&gt;- status: Success | Pending | Idle | Failed&amp;nbsp;&lt;/div&gt;&lt;div&gt;- input_format: Object&lt;/div&gt;" style="text;strokeColor=none;fillColor=none;align=left;verticalAlign=top;spacingLeft=4;spacingRight=4;overflow=hidden;rotatable=0;points=[[0,0.5],[1,0.5]];portConstraint=eastwest;whiteSpace=wrap;html=1;fontFamily=Architects Daughter;fontSource=https%3A%2F%2Ffonts.googleapis.com%2Fcss%3Ffamily%3DArchitects%2BDaughter;" vertex="1" parent="u1WKg1l0E3gmMKmdUdX--49">
          <mxGeometry y="26" width="240" height="164" as="geometry" />
        </mxCell>
        <mxCell id="u1WKg1l0E3gmMKmdUdX--51" value="" style="line;strokeWidth=1;fillColor=none;align=left;verticalAlign=middle;spacingTop=-1;spacingLeft=3;spacingRight=3;rotatable=0;labelPosition=right;points=[];portConstraint=eastwest;strokeColor=inherit;sketch=1;hachureGap=4;jiggle=2;curveFitting=1;fontFamily=Architects Daughter;fontSource=https%3A%2F%2Ffonts.googleapis.com%2Fcss%3Ffamily%3DArchitects%2BDaughter;" vertex="1" parent="u1WKg1l0E3gmMKmdUdX--49">
          <mxGeometry y="190" width="240" height="8" as="geometry" />
        </mxCell>
      </root>
    </mxGraphModel>
  </diagram>
</mxfile>
